<?xml version="1.0" encoding="UTF-8"?>
<svg id="Layer_1" data-name="Layer 1" xmlns="http://www.w3.org/2000/svg" viewBox="0 0 235.6 235.6">
  <defs>
    <style>
      .cls-1 {
        fill: #fff;
      }
    </style>
  </defs>
  <path class="cls-1" d="M117.8,235.6C52.9,235.6,0,182.8,0,117.8S52.8,0,117.8,0s117.8,52.8,117.8,117.8-52.9,117.8-117.8,117.8Zm0-225.6C58.4,10,10,58.3,10,117.8s48.3,107.8,107.8,107.8,107.7-48.4,107.7-107.8S177.2,10,117.8,10Z"/>
  <g>
    <path class="cls-1" d="M117.8,127c-1.3,0-2.6-.3-3.7-1L44.1,86.1c-2.3-1.3-3.8-3.8-3.8-6.5v-3.8c0-6.7,5.4-12.1,12.1-12.1h127.8c8.2,0,15,6.7,15,15v1c0,2.7-1.4,5.2-3.8,6.5l-70,40c-1.1,.4-2.3,.8-3.6,.8ZM49.6,78.5l68.2,38.9,68.2-38.9c0-3.1-2.6-5.6-5.7-5.6H52.4c-1.6,0-2.8,1.3-2.8,2.8v2.8Z"/>
    <path class="cls-1" d="M183.1,171.9H52.4c-6.7,0-12.1-5.4-12.1-12.1v-56.9c0-1.7,.9-3.2,2.3-4,1.4-.8,3.2-.8,4.6,0l70.5,40.2,70.5-40.3c1.4-.8,3.2-.8,4.6,0s2.3,2.4,2.3,4v57c.1,6.7-5.3,12.1-12,12.1ZM49.6,110.9v48.9c0,1.6,1.3,2.8,2.8,2.8H183.1c1.6,0,2.8-1.3,2.8-2.8v-49l-63.7,36.4c-2.7,1.6-6.3,1.5-9,0l-63.6-36.3Zm68.3,28.3h0Z"/>
  </g>
</svg>