<?xml version="1.0" encoding="UTF-8"?>
<svg id="Layer_1" data-name="Layer 1" xmlns="http://www.w3.org/2000/svg" viewBox="0 0 234.57 234.58">
  <defs>
    <style>
      .cls-1 {
        fill: #fff;
      }
    </style>
  </defs>
  <path class="cls-1" d="M160.96,149.74l4.98-32.46h-31.14v-21.06c0-8.88,4.35-17.53,18.3-17.53h14.16v-27.63s-12.85-2.19-25.13-2.19c-25.65,0-42.41,15.54-42.41,43.68v24.74h-28.51v32.46h28.51v78.46c5.72,.9,11.58,1.36,17.54,1.36s11.83-.47,17.54-1.36v-78.46h26.16Z"/>
  <path class="cls-1" d="M117.29,234.58C52.61,234.58,0,181.96,0,117.29S52.61,0,117.29,0s117.29,52.61,117.29,117.29-52.62,117.29-117.29,117.29Zm0-224.56C58.14,10.02,10.02,58.14,10.02,117.29s48.12,107.27,107.27,107.27,107.27-48.12,107.27-107.27S176.43,10.02,117.29,10.02Z"/>
</svg>