<?xml version="1.0" encoding="UTF-8"?>
<svg id="Layer_1" data-name="Layer 1" xmlns="http://www.w3.org/2000/svg" viewBox="0 0 235.58 235.58">
  <defs>
    <style>
      .cls-1 {
        fill: #fff;
      }
    </style>
  </defs>
  <path class="cls-1" d="M117.79,235.58C52.84,235.58,0,182.74,0,117.79S52.84,0,117.79,0s117.79,52.84,117.79,117.79-52.84,117.79-117.79,117.79Zm0-225.56C58.36,10.02,10.02,58.37,10.02,117.79s48.34,107.77,107.77,107.77,107.77-48.35,107.77-107.77S177.21,10.02,117.79,10.02Z"/>
  <g>
    <path class="cls-1" d="M117.79,60.85c19.96,0,36.2,16.24,36.2,36.2s-21.99,53.06-36.21,71.93c-14.22-18.86-36.2-52.22-36.2-71.93s16.24-36.2,36.2-36.2m0-9.29c-25.13,0-45.49,20.36-45.49,45.49,0,32.02,45.49,86.96,45.49,86.96,0,0,45.49-54.94,45.49-86.96,0-25.13-20.36-45.49-45.49-45.49h0Z"/>
    <path class="cls-1" d="M117.79,85.73c6.37,0,11.55,5.18,11.55,11.55s-5.18,11.55-11.55,11.55-11.55-5.18-11.55-11.55,5.18-11.55,11.55-11.55m0-9.29c-11.51,0-20.83,9.33-20.83,20.83s9.33,20.83,20.83,20.83,20.83-9.33,20.83-20.83-9.33-20.83-20.83-20.83h0Z"/>
  </g>
</svg>