<?xml version="1.0" encoding="UTF-8"?>
<svg id="Layer_1" data-name="Layer 1" xmlns="http://www.w3.org/2000/svg" viewBox="0 0 235.58 235.58">
  <defs>
    <style>
      .cls-1 {
        fill: #fff;
      }
    </style>
  </defs>
  <path class="cls-1" d="M117.79,235.58C52.84,235.58,0,182.74,0,117.79S52.84,0,117.79,0s117.79,52.84,117.79,117.79-52.84,117.79-117.79,117.79Zm0-225.56C58.37,10.02,10.02,58.37,10.02,117.79s48.35,107.77,107.77,107.77,107.77-48.35,107.77-107.77S177.21,10.02,117.79,10.02Z"/>
  <g id="phone">
    <path class="cls-1" d="M146.07,181.75c-12.91,0-31.79-8.29-56.07-40.97l-1.3-1.75c-13.77-18.54-21.79-35.01-23.83-48.94-2.5-17.06,4.47-26.2,10.75-30.86l4.67-3.47c2.13-1.58,4.75-2.21,7.39-1.78,2.58,.43,4.87,1.83,6.44,3.95l15.1,20.32c3.55,4.77,2.62,11.48-2.06,14.96l-3.58,2.66c-2.52,1.87-2.95,5.58-.96,8.26l24.8,33.38c1.99,2.68,5.67,3.34,8.19,1.47l3.58-2.66c2.29-1.7,5.12-2.38,7.96-1.91,2.78,.46,5.25,1.97,6.95,4.26l15.11,20.33c1.57,2.12,2.25,4.71,1.92,7.3-.34,2.65-1.7,4.98-3.83,6.56l-4.68,3.48c-3.33,2.48-8.89,5.4-16.55,5.4ZM86.07,63.14c-.14,0-.21,.06-.24,.08l-4.67,3.47h0c-6.18,4.59-8.57,12.01-7.1,22.06,1.79,12.22,9.43,27.69,22.1,44.74l1.3,1.75c17.97,24.19,35.31,37.22,48.72,37.22,4.02,0,7.69-1.17,10.91-3.57l4.68-3.48s.13-.1,.16-.3c.01-.11,.01-.33-.16-.56l-15.11-20.33c-.35-.47-.78-.6-1.01-.64-.24-.04-.59-.04-.91,.2l-3.58,2.66c-6.63,4.92-16.13,3.41-21.18-3.39l-24.8-33.38c-5.05-6.79-3.76-16.33,2.87-21.25l3.58-2.66c.57-.42,.63-1.31,.14-1.97l-15.1-20.32c-.18-.24-.39-.3-.5-.32-.04,0-.07,0-.1,0Zm-7.68-.18h0Z"/>
  </g>
</svg>